<svg width="16" height="16" viewBox="0 0 16 16" fill="none" xmlns="http://www.w3.org/2000/svg">
<g clip-path="url(#clip0_61_1378)">
<path fill-rule="evenodd" clip-rule="evenodd" d="M9.20733 0.785959L4.96183 8.27846L4.0918 7.78547L8.3373 0.292969L9.20733 0.785959Z" fill="#383E43"></path>
<path fill-rule="evenodd" clip-rule="evenodd" d="M2.35611 3.34766L6.71961 10.7667L5.85764 11.2736L1.49414 3.85462L2.35611 3.34766Z" fill="#383E43"></path>
<path fill-rule="evenodd" clip-rule="evenodd" d="M1.14844 10.5612L9.75394 10.4922L9.76196 11.4922L1.15646 11.5612L1.14844 10.5612Z" fill="#383E43"></path>
<path fill-rule="evenodd" clip-rule="evenodd" d="M6.79199 15.2146L11.035 7.72656L11.905 8.21956L7.66202 15.7076L6.79199 15.2146Z" fill="#383E43"></path>
<path fill-rule="evenodd" clip-rule="evenodd" d="M13.6428 12.6525L9.2793 5.23353L10.1413 4.72656L14.5048 12.1456L13.6428 12.6525Z" fill="#383E43"></path>
<path fill-rule="evenodd" clip-rule="evenodd" d="M14.8518 5.43942L6.2463 5.50842L6.23828 4.50845L14.8438 4.43945L14.8518 5.43942Z" fill="#383E43"></path>
<path fill-rule="evenodd" clip-rule="evenodd" d="M8 1C4.13401 1 1 4.13401 1 8C1 11.866 4.13401 15 8 15C11.866 15 15 11.866 15 8C15 4.13401 11.866 1 8 1ZM0 8C0 3.58172 3.58172 0 8 0C12.4183 0 16 3.58172 16 8C16 12.4183 12.4183 16 8 16C3.58172 16 0 12.4183 0 8Z" fill="#383E43"></path>
</g>
<defs>
<clipPath id="clip0_61_1378">
<rect width="16" height="16" fill="white"></rect>
</clipPath>
</defs>
</svg>