<svg width="16" height="16" viewBox="0 0 16 16" fill="none" xmlns="http://www.w3.org/2000/svg">
<path fill-rule="evenodd" clip-rule="evenodd" d="M4.5 1C4.23478 1 3.98043 1.10536 3.79289 1.29289C3.60536 1.48043 3.5 1.73478 3.5 2V14C3.5 14.2652 3.60536 14.5196 3.79289 14.7071C3.98043 14.8946 4.23478 15 4.5 15H11.5C11.7652 15 12.0196 14.8946 12.2071 14.7071C12.3946 14.5196 12.5 14.2652 12.5 14V2C12.5 1.73478 12.3946 1.48043 12.2071 1.29289C12.0196 1.10536 11.7652 1 11.5 1H4.5ZM3.08579 0.585786C3.46086 0.210714 3.96957 0 4.5 0H11.5C12.0304 0 12.5391 0.210714 12.9142 0.585786C13.2893 0.960859 13.5 1.46957 13.5 2V14C13.5 14.5304 13.2893 15.0391 12.9142 15.4142C12.5391 15.7893 12.0304 16 11.5 16H4.5C3.96957 16 3.46086 15.7893 3.08579 15.4142C2.71071 15.0391 2.5 14.5304 2.5 14V2C2.5 1.46957 2.71071 0.960859 3.08579 0.585786Z" fill="#383E43"></path>
<path fill-rule="evenodd" clip-rule="evenodd" d="M9.19404 4.86134L7.43492 7.50002H10.4349L7.63934 11.6934L6.80729 11.1387L8.56641 8.50002H5.56641L8.36199 4.30664L9.19404 4.86134Z" fill="#383E43"></path>
</svg>