<svg width="16" height="16" viewBox="0 0 16 16" fill="none" xmlns="http://www.w3.org/2000/svg">
<path fill-rule="evenodd" clip-rule="evenodd" d="M2 2C1.44772 2 1 2.44772 1 3V13C1 13.5523 1.44772 14 2 14H14C14.5523 14 15 13.5523 15 13V3C15 2.44772 14.5523 2 14 2H2ZM0 3C0 1.89543 0.89543 1 2 1H14C15.1046 1 16 1.89543 16 3V13C16 14.1046 15.1046 15 14 15H2C0.89543 15 0 14.1046 0 13V3Z" fill="#383E43"></path>
<path fill-rule="evenodd" clip-rule="evenodd" d="M3 9V12H6V13H2V9H3Z" fill="#383E43"></path>
<path fill-rule="evenodd" clip-rule="evenodd" d="M10 3H14V7H13V4H10V3Z" fill="#383E43"></path>
</svg>